<?xml version="1.0" standalone="no"?>
<!DOCTYPE svg PUBLIC "-//W3C//DTD SVG 20010904//EN"
 "http://www.w3.org/TR/2001/REC-SVG-20010904/DTD/svg10.dtd">
<svg version="1.0" xmlns="http://www.w3.org/2000/svg"
 width="512.000000pt" height="512.000000pt" viewBox="0 0 512.000000 512.000000"
 preserveAspectRatio="xMidYMid meet">
<metadata>
Created by potrace 1.14, written by Peter Selinger 2001-2017
</metadata>
<g transform="translate(0.000000,512.000000) scale(0.100000,-0.100000)"
fill="#000000" stroke="none">
<path d="M4458 4827 c-64 -20 -123 -70 -151 -128 -56 -111 -26 -264 65 -329
59 -43 134 -57 203 -38 l55 15 0 -28 c0 -69 -46 -105 -131 -103 -26 1 -68 11
-94 23 -26 12 -51 21 -56 21 -5 0 -9 -32 -9 -71 l0 -70 38 -17 c27 -12 65 -17
142 -17 119 0 162 15 218 79 55 63 62 109 62 403 0 145 -4 263 -8 263 -5 0
-33 -5 -63 -10 -44 -8 -64 -7 -98 5 -51 18 -121 18 -173 2z m156 -133 c13 -5
16 -25 16 -115 l0 -109 -27 -11 c-46 -17 -94 -4 -132 37 -31 34 -33 40 -29 92
4 47 10 60 37 84 24 22 41 28 75 28 25 0 51 -3 60 -6z"/>
<path d="M3940 4152 c-159 -42 -242 -134 -289 -319 -11 -43 -32 -175 -47 -293
-37 -308 -72 -403 -183 -493 -92 -75 -183 -105 -456 -152 -213 -37 -297 -60
-400 -110 -150 -73 -272 -191 -340 -330 -55 -111 -65 -167 -65 -360 0 -194 -9
-264 -43 -338 -45 -99 -185 -226 -303 -275 -63 -26 -150 -39 -319 -47 -151 -7
-227 -19 -301 -46 -125 -47 -241 -169 -327 -344 -69 -140 -70 -130 15 -169
l73 -33 52 106 c91 185 183 274 310 300 32 6 137 16 234 21 191 11 259 25 358
71 133 61 274 187 340 303 31 53 40 77 62 156 6 19 13 139 17 266 l7 230 39
79 c71 144 207 252 381 304 39 11 149 34 245 51 243 43 292 55 398 106 66 32
111 62 160 108 132 126 169 221 212 558 36 277 45 321 79 384 42 78 112 114
224 114 l57 0 0 85 0 85 -62 -1 c-35 0 -92 -8 -128 -17z"/>
<path d="M511 769 c-46 -9 -114 -41 -143 -66 -67 -60 -96 -192 -63 -280 41
-106 143 -174 260 -174 87 0 135 15 193 60 68 55 97 115 97 206 -1 85 -23 134
-89 192 -63 55 -166 80 -255 62z m144 -162 c56 -56 59 -129 6 -186 -78 -83
-211 -22 -211 98 0 37 6 49 39 82 34 34 44 39 86 39 40 0 52 -5 80 -33z"/>
</g>
</svg>
